{"title":"Revolution Z - Season 1 - Episode 8","uid":7922009,"size":525139230,"categoryP":"video","categoryS":"tv_shows","magnet":"?xt=urn:btih:1d8efb229fbe1898d6f9f97e68b58aba27b36d1d&amp;dn=Revolution+Z+-+Season+1+-+Episode+8&amp;tr=udp%3A%2F%2Ftracker.openbittorrent.com%3A80&amp;tr=udp%3A%2F%2Fopen.demonii.com%3A1337&amp;tr=udp%3A%2F%2Ftracker.coppersurfer.tk%3A6969&amp;tr=udp%3A%2F%2Fexodus.desync.com%3A6969","seeders":1,"leechers":0,"uploader":null,"files":1,"time":1355496325,"description":"HQ WebRip\n\n\nFormat                                   : AVI\nFormat/Info                              : Audio Video Interleave\nFile size                                : 501 MiB\nDuration                                 : 47mn 36s\nOverall bit rate                         : 1 471 Kbps\nWriting application                      : Lavf52.84.0\n\nVideo\nID                                       : 0\nFormat                                   : xvid\nCodec ID                                 : xvid\nDuration                                 : 47mn 36s\nBit rate                                 : 1 332 Kbps\nWidth                                    : 720 pixels\nHeight                                   : 400 pixels\nDisplay aspect ratio                     : 16:9\nFrame rate                               : 25.000 fps\nBits/(Pixel*Frame)                       : 0.185\nStream size                              : 453 MiB (91%)\n\nAudio\nID                                       : 1\nFormat                                   : AC-3\nFormat/Info                              : Audio Coding 3\nMode extension                           : CM (complete main)\nFormat settings, Endianness              : Big\nCodec ID                                 : 2000\nDuration                                 : 47mn 36s\nBit rate mode                            : Constant\nBit rate                                 : 128 Kbps\nChannel(s)                               : 2 channels\nChannel positions                        : Front: L R\nSampling rate                            : 48.0 KHz\nBit depth                                : 16 bits\nCompression mode                         : Lossy\nStream size                              : 43.6 MiB (9%)\nAlignment                                : Aligned on interleaves\nInterleave, duration                     : 32 ms (0.80 video frame)\n\n","torrent":{"xt":"urn:btih:1d8efb229fbe1898d6f9f97e68b58aba27b36d1d","amp;dn":"Revolution+Z+-+Season+1+-+Episode+8","amp;tr":["udp%3A%2F%2Ftracker.openbittorrent.com%3A80","udp%3A%2F%2Fopen.demonii.com%3A1337","udp%3A%2F%2Ftracker.coppersurfer.tk%3A6969","udp%3A%2F%2Fexodus.desync.com%3A6969"],"infoHash":"1d8efb229fbe1898d6f9f97e68b58aba27b36d1d","infoHashBuffer":{"type":"Buffer","data":[29,142,251,34,159,190,24,152,214,249,249,126,104,181,138,186,39,179,109,29]},"announce":[],"urlList":[]}}